<svg width="14" height="14" viewBox="0 0 14 14" fill="none" xmlns="http://www.w3.org/2000/svg">
<path fill-rule="evenodd" clip-rule="evenodd" d="M11.9384 5.69443C11.9248 5.59382 11.91 5.49333 11.894 5.39298L11.8584 5.16996C11.7333 4.38588 11.0569 3.80894 10.2629 3.80894L5.75351 3.80894C5.58627 3.21396 5.03972 2.77776 4.39129 2.77776H3.11819C2.2944 2.77776 1.60052 3.39331 1.5023 4.21123L1.35092 5.47185C1.18834 6.82575 1.23029 8.1964 1.47539 9.53782C1.60651 10.2555 2.2067 10.7934 2.93436 10.8455L3.77547 10.9056C5.70088 11.0434 7.63366 11.0434 9.55906 10.9056L10.469 10.8405C10.9182 10.8084 11.3159 10.5802 11.5722 10.2367C11.9131 9.90964 12.1814 9.5102 12.3549 9.06385L13.0491 7.27894C13.3456 6.51656 12.7832 5.69443 11.9652 5.69443H11.9384ZM3.11819 3.6111C2.71621 3.6111 2.37762 3.91146 2.32969 4.31058L2.17831 5.5712C2.02569 6.84215 2.06507 8.12881 2.29515 9.38804C2.35794 9.73171 2.64536 9.98931 2.99382 10.0142L3.04161 10.0177L4.33721 6.67069C4.56498 6.08229 5.13102 5.69443 5.76196 5.69443H11.097C11.0888 5.63768 11.0801 5.58098 11.0711 5.52432L11.0355 5.30131C10.9749 4.92164 10.6474 4.64227 10.2629 4.64227L5.42246 4.64227C5.17413 4.64227 4.97282 4.44096 4.97282 4.19263C4.97282 3.87146 4.71246 3.6111 4.39129 3.6111H3.11819Z" fill="white"/>
</svg>
